<mxfile host="app.diagrams.net" agent="Mozilla/5.0 (Windows NT 10.0; Win64; x64) AppleWebKit/537.36 (KHTML, like Gecko) Chrome/135.0.0.0 Safari/537.36 Edg/135.0.0.0" version="26.2.12">
  <diagram name="페이지-1" id="gGdOECfM_ZujpPAONMLC">
    <mxGraphModel dx="1022" dy="468" grid="1" gridSize="10" guides="1" tooltips="1" connect="1" arrows="1" fold="1" page="1" pageScale="1" pageWidth="827" pageHeight="1169" math="0" shadow="0">
      <root>
        <mxCell id="0" />
        <mxCell id="1" parent="0" />
        <mxCell id="S2XzvXZUlg69lD4Gv2z2-1" value="1" style="shape=process;whiteSpace=wrap;html=1;backgroundOutline=1;size=0.3333333333333333;" vertex="1" parent="1">
          <mxGeometry x="254" y="110" width="120" height="40" as="geometry" />
        </mxCell>
        <mxCell id="S2XzvXZUlg69lD4Gv2z2-2" value="" style="shape=process;whiteSpace=wrap;html=1;backgroundOutline=1;size=0.3333333333333333;" vertex="1" parent="1">
          <mxGeometry x="374" y="110" width="120" height="40" as="geometry" />
        </mxCell>
        <mxCell id="S2XzvXZUlg69lD4Gv2z2-3" value="" style="shape=process;whiteSpace=wrap;html=1;backgroundOutline=1;size=0.3333333333333333;" vertex="1" parent="1">
          <mxGeometry x="454" y="110" width="120" height="40" as="geometry" />
        </mxCell>
        <mxCell id="S2XzvXZUlg69lD4Gv2z2-4" value="" style="shape=process;whiteSpace=wrap;html=1;backgroundOutline=1;size=0.3333333333333333;" vertex="1" parent="1">
          <mxGeometry x="294" y="170" width="120" height="40" as="geometry" />
        </mxCell>
        <mxCell id="S2XzvXZUlg69lD4Gv2z2-5" value="" style="shape=process;whiteSpace=wrap;html=1;backgroundOutline=1;size=0.3333333333333333;" vertex="1" parent="1">
          <mxGeometry x="374" y="170" width="120" height="40" as="geometry" />
        </mxCell>
        <mxCell id="S2XzvXZUlg69lD4Gv2z2-6" value="" style="shape=process;whiteSpace=wrap;html=1;backgroundOutline=1;size=0.3333333333333333;" vertex="1" parent="1">
          <mxGeometry x="454" y="170" width="120" height="40" as="geometry" />
        </mxCell>
        <mxCell id="S2XzvXZUlg69lD4Gv2z2-7" value="" style="shape=process;whiteSpace=wrap;html=1;backgroundOutline=1;size=0;" vertex="1" parent="1">
          <mxGeometry x="534" y="230" width="40" height="40" as="geometry" />
        </mxCell>
        <mxCell id="S2XzvXZUlg69lD4Gv2z2-8" value="" style="endArrow=none;html=1;rounded=0;" edge="1" parent="1">
          <mxGeometry width="50" height="50" relative="1" as="geometry">
            <mxPoint x="244" y="290" as="sourcePoint" />
            <mxPoint x="584" y="290" as="targetPoint" />
          </mxGeometry>
        </mxCell>
        <mxCell id="S2XzvXZUlg69lD4Gv2z2-10" value="1" style="text;html=1;align=center;verticalAlign=middle;whiteSpace=wrap;rounded=0;" vertex="1" parent="1">
          <mxGeometry x="370" y="115" width="50" height="30" as="geometry" />
        </mxCell>
        <mxCell id="S2XzvXZUlg69lD4Gv2z2-12" value="1" style="text;html=1;align=center;verticalAlign=middle;whiteSpace=wrap;rounded=0;" vertex="1" parent="1">
          <mxGeometry x="409" y="115" width="50" height="30" as="geometry" />
        </mxCell>
        <mxCell id="S2XzvXZUlg69lD4Gv2z2-13" value="1" style="text;html=1;align=center;verticalAlign=middle;whiteSpace=wrap;rounded=0;" vertex="1" parent="1">
          <mxGeometry x="459" y="115" width="34" height="30" as="geometry" />
        </mxCell>
        <mxCell id="S2XzvXZUlg69lD4Gv2z2-14" value="1" style="text;html=1;align=center;verticalAlign=middle;whiteSpace=wrap;rounded=0;" vertex="1" parent="1">
          <mxGeometry x="489" y="115" width="50" height="30" as="geometry" />
        </mxCell>
        <mxCell id="S2XzvXZUlg69lD4Gv2z2-15" value="1" style="text;html=1;align=center;verticalAlign=middle;whiteSpace=wrap;rounded=0;" vertex="1" parent="1">
          <mxGeometry x="329" y="115" width="50" height="30" as="geometry" />
        </mxCell>
        <mxCell id="S2XzvXZUlg69lD4Gv2z2-16" value="1" style="text;html=1;align=center;verticalAlign=middle;whiteSpace=wrap;rounded=0;" vertex="1" parent="1">
          <mxGeometry x="260" y="115" width="30" height="30" as="geometry" />
        </mxCell>
        <mxCell id="S2XzvXZUlg69lD4Gv2z2-17" value="1" style="text;html=1;align=center;verticalAlign=middle;whiteSpace=wrap;rounded=0;" vertex="1" parent="1">
          <mxGeometry x="538.5" y="175" width="31" height="30" as="geometry" />
        </mxCell>
        <mxCell id="S2XzvXZUlg69lD4Gv2z2-18" value="1" style="text;html=1;align=center;verticalAlign=middle;whiteSpace=wrap;rounded=0;" vertex="1" parent="1">
          <mxGeometry x="539" y="235" width="31" height="30" as="geometry" />
        </mxCell>
        <mxCell id="S2XzvXZUlg69lD4Gv2z2-19" value="" style="shape=process;whiteSpace=wrap;html=1;backgroundOutline=1;size=0.3333333333333333;" vertex="1" parent="1">
          <mxGeometry x="294" y="310" width="120" height="40" as="geometry" />
        </mxCell>
        <mxCell id="S2XzvXZUlg69lD4Gv2z2-20" value="" style="shape=process;whiteSpace=wrap;html=1;backgroundOutline=1;size=0.3333333333333333;" vertex="1" parent="1">
          <mxGeometry x="374" y="310" width="120" height="40" as="geometry" />
        </mxCell>
        <mxCell id="S2XzvXZUlg69lD4Gv2z2-21" value="" style="shape=process;whiteSpace=wrap;html=1;backgroundOutline=1;size=0.3333333333333333;" vertex="1" parent="1">
          <mxGeometry x="454" y="310" width="120" height="40" as="geometry" />
        </mxCell>
        <mxCell id="S2XzvXZUlg69lD4Gv2z2-22" value="0" style="text;html=1;align=center;verticalAlign=middle;whiteSpace=wrap;rounded=0;" vertex="1" parent="1">
          <mxGeometry x="538.5" y="115" width="31" height="30" as="geometry" />
        </mxCell>
        <mxCell id="S2XzvXZUlg69lD4Gv2z2-23" value="0" style="text;html=1;align=center;verticalAlign=middle;whiteSpace=wrap;rounded=0;" vertex="1" parent="1">
          <mxGeometry x="459" y="175" width="31" height="30" as="geometry" />
        </mxCell>
        <mxCell id="S2XzvXZUlg69lD4Gv2z2-24" value="0" style="text;html=1;align=center;verticalAlign=middle;whiteSpace=wrap;rounded=0;" vertex="1" parent="1">
          <mxGeometry x="498.5" y="175" width="31" height="30" as="geometry" />
        </mxCell>
        <mxCell id="S2XzvXZUlg69lD4Gv2z2-25" value="0" style="text;html=1;align=center;verticalAlign=middle;whiteSpace=wrap;rounded=0;" vertex="1" parent="1">
          <mxGeometry x="418.5" y="175" width="31" height="30" as="geometry" />
        </mxCell>
        <mxCell id="S2XzvXZUlg69lD4Gv2z2-26" value="0" style="text;html=1;align=center;verticalAlign=middle;whiteSpace=wrap;rounded=0;" vertex="1" parent="1">
          <mxGeometry x="378" y="175" width="31" height="30" as="geometry" />
        </mxCell>
        <mxCell id="S2XzvXZUlg69lD4Gv2z2-27" value="0" style="text;html=1;align=center;verticalAlign=middle;whiteSpace=wrap;rounded=0;" vertex="1" parent="1">
          <mxGeometry x="338.5" y="175" width="31" height="30" as="geometry" />
        </mxCell>
        <mxCell id="S2XzvXZUlg69lD4Gv2z2-28" value="0" style="text;html=1;align=center;verticalAlign=middle;whiteSpace=wrap;rounded=0;" vertex="1" parent="1">
          <mxGeometry x="298.5" y="175" width="31" height="30" as="geometry" />
        </mxCell>
        <mxCell id="S2XzvXZUlg69lD4Gv2z2-29" value="0" style="text;html=1;align=center;verticalAlign=middle;whiteSpace=wrap;rounded=0;" vertex="1" parent="1">
          <mxGeometry x="298.5" y="315" width="31" height="30" as="geometry" />
        </mxCell>
        <mxCell id="S2XzvXZUlg69lD4Gv2z2-30" value="0" style="text;html=1;align=center;verticalAlign=middle;whiteSpace=wrap;rounded=0;" vertex="1" parent="1">
          <mxGeometry x="338.5" y="315" width="31" height="30" as="geometry" />
        </mxCell>
        <mxCell id="S2XzvXZUlg69lD4Gv2z2-31" value="0" style="text;html=1;align=center;verticalAlign=middle;whiteSpace=wrap;rounded=0;" vertex="1" parent="1">
          <mxGeometry x="378" y="315" width="31" height="30" as="geometry" />
        </mxCell>
        <mxCell id="S2XzvXZUlg69lD4Gv2z2-32" value="0" style="text;html=1;align=center;verticalAlign=middle;whiteSpace=wrap;rounded=0;" vertex="1" parent="1">
          <mxGeometry x="418.5" y="315" width="31" height="30" as="geometry" />
        </mxCell>
        <mxCell id="S2XzvXZUlg69lD4Gv2z2-33" value="0" style="text;html=1;align=center;verticalAlign=middle;whiteSpace=wrap;rounded=0;" vertex="1" parent="1">
          <mxGeometry x="459" y="315" width="31" height="30" as="geometry" />
        </mxCell>
        <mxCell id="S2XzvXZUlg69lD4Gv2z2-34" value="0" style="text;html=1;align=center;verticalAlign=middle;whiteSpace=wrap;rounded=0;" vertex="1" parent="1">
          <mxGeometry x="538.5" y="315" width="31" height="30" as="geometry" />
        </mxCell>
        <mxCell id="S2XzvXZUlg69lD4Gv2z2-35" value="1" style="text;html=1;align=center;verticalAlign=middle;whiteSpace=wrap;rounded=0;" vertex="1" parent="1">
          <mxGeometry x="498.5" y="315" width="31" height="30" as="geometry" />
        </mxCell>
      </root>
    </mxGraphModel>
  </diagram>
</mxfile>
